<svg width="783" height="783" xmlns="http://www.w3.org/2000/svg" xmlns:xlink="http://www.w3.org/1999/xlink" xml:space="preserve" overflow="hidden"><g transform="translate(32 -912)"><g><g><g><g><path d="M531.333 1230.17 531.333 1116.42 495.042 1152.71C458.75 1120.21 410.542 1100.17 358 1100.17 244.25 1100.17 152.167 1192.25 152.167 1306 152.167 1419.75 244.25 1511.83 358 1511.83 414.875 1511.83 466.333 1488.54 503.708 1451.71L457.667 1405.67C432.208 1431.12 397 1446.83 358 1446.83 280.542 1446.83 217.167 1383.46 217.167 1306 217.167 1228.54 280.542 1165.17 358 1165.17 392.667 1165.17 424.625 1177.62 449 1198.75L417.583 1230.17 531.333 1230.17Z" fill="#F42F49" fill-rule="nonzero" fill-opacity="1"/></g></g></g></g></g></svg>