<svg width="783" height="784" xmlns="http://www.w3.org/2000/svg" xmlns:xlink="http://www.w3.org/1999/xlink" xml:space="preserve" overflow="hidden"><g transform="translate(87 -45)"><g><g><g><g><path d="M478.333 360.167 478.333 246.417 442.042 282.708C405.75 250.208 357.542 230.167 305 230.167 191.25 230.167 99.1667 322.25 99.1667 436 99.1667 549.75 191.25 641.833 305 641.833 361.875 641.833 413.333 618.542 450.708 581.708L404.667 535.667C379.208 561.125 344 576.833 305 576.833 227.542 576.833 164.167 513.458 164.167 436 164.167 358.542 227.542 295.167 305 295.167 339.667 295.167 371.625 307.625 396 328.75L364.583 360.167 478.333 360.167Z" fill="#00B0F0" fill-rule="nonzero" fill-opacity="1"/></g></g></g></g></g></svg>